#!OML:ASF F:\VICON\USERDATA\INSTALL\rory3\rory3.ASF
:FULLY-SPECIFIED
:DEGREES
144
root -12.5032 17.5617 -4.42253 -98.4207 88.2487 -95.5917
lowerback 14.1786 0.103767 -2.74829
upperback 1.03846 -0.139496 1.34713
thorax -6.84746 0.0612962 3.013
lowerneck -15.6726 -10.0346 -13.941
upperneck 30.3563 -13.9154 12.145
head 15.1789 -5.84735 4.88141
rclavicle -3.72721e-015 2.33572e-015
rhumerus -37.4261 -17.3399 -73.6063
rradius 35.6248
rwrist 5.64007
rhand -16.2231 5.66069
rfingers 7.12502
rthumb 9.98491 -24.0825
lclavicle -3.72721e-015 2.33572e-015
lhumerus -36.3999 5.38847 80.9704
lradius 36.0107
lwrist -3.73696
lhand -16.9874 25.4635
lfingers 7.12502
lthumb 9.24755 55.2407
rfemur -14.5527 -8.19658 20.8099
rtibia 44.4184
rfoot -20.0078 21.5149
rtoes -12.4283
lfemur -7.0123 -5.16476 -20.3771
ltibia 32.2957
lfoot -18.5147 -9.38037
ltoes 6.58455
145
root -12.5245 17.565 -4.38425 -92.0839 88.3829 -89.3756
lowerback 14.183 0.137291 -2.89974
upperback 1.02246 -0.126526 1.26393
thorax -6.86784 0.0710057 3.00809
lowerneck -15.7884 -9.99883 -13.7172
upperneck 30.3125 -13.8875 12.0589
head 15.148 -5.81803 4.8061
rclavicle -3.86388e-015 6.95746e-016
rhumerus -37.4746 -17.1909 -73.8713
rradius 35.7139
rwrist 5.75889
rhand -16.4655 5.39188
rfingers 7.12502
rthumb 9.75102 -24.3624
lclavicle -3.86388e-015 6.95746e-016
lhumerus -36.2848 5.4595 80.7822
lradius 35.9645
lwrist -3.56322
lhand -16.9655 25.7005
lfingers 7.12502
lthumb 9.26864 55.4767
rfemur -15.2366 -8.60778 20.4489
rtibia 45.171
rfoot -19.4489 22.6667
rtoes -12.9747
lfemur -7.11794 -5.09313 -20.3733
ltibia 32.1496
lfoot -17.6934 -10.0842
ltoes 11.7547
146
root -12.5465 17.569 -4.33729 -90.1042 88.8659 -87.5691
lowerback 14.1506 0.195942 -3.44593
upperback 0.974055 -0.151698 1.07186
thorax -6.89903 0.0725451 3.119
lowerneck -15.8462 -10.0222 -13.5319
upperneck 30.2803 -13.9616 12.0264
head 15.1376 -5.83076 4.74139
rclavicle -5.77718e-016 2.18663e-015
rhumerus -37.6032 -17.3399 -73.9924
rradius 35.7046
rwrist 6.00432
rhand -16.7316 5.67959
rfingers 7.12502
rthumb 9.49434 -24.0865
lclavicle -5.77718e-016 2.18663e-015
lhumerus -36.218 5.30913 80.6575
lradius 35.9517
lwrist -3.45978
lhand -16.7854 25.611
lfingers 7.12502
lthumb 9.44241 55.3794
rfemur -16.0388 -9.15538 19.7121
rtibia 45.9839
rfoot -19.1055 23.5572
rtoes -16.1888
lfemur -7.32249 -4.77352 -20.705
ltibia 31.99
lfoot -17.4206 -10.6869
ltoes 16.2011
147
root -12.568 17.5616 -4.29129 -82.0559 89.1759 -79.6549
lowerback 14.1296 0.259326 -3.79324
upperback 0.943097 -0.131941 0.961297
thorax -6.92174 0.0914874 3.19467
lowerneck -15.886 -10.0482 -13.6539
upperneck 30.238 -14.0006 12.151
head 15.1596 -5.84608 4.804
rclavicle -2.62768e-015 -5.96354e-016
rhumerus -37.7345 -17.2405 -74.0815
rradius 35.7933
rwrist 5.91039
rhand -16.8231 5.7067
rfingers 7.12502
rthumb 9.40602 -24.0634
lclavicle -2.62768e-015 -5.96354e-016
lhumerus -36.1251 5.24457 80.5873
lradius 35.9224
lwrist -3.43894
lhand -16.5476 25.2886
lfingers 7.12502
lthumb 9.67187 55.0466
rfemur -16.8332 -9.57773 19.1605
rtibia 46.827
rfoot -19.2431 24.0243
rtoes -21.7496
lfemur -7.45354 -4.42036 -20.9463
ltibia 31.76
lfoot -17.9339 -10.1467
ltoes 12.8673
148
root -12.5832 17.5635 -4.24949 -72.4378 88.9874 -69.9431
lowerback 14.2742 0.30458 -3.67175
upperback 0.999167 -0.0522068 0.99772
thorax -6.94895 0.127906 3.14944
lowerneck -15.871 -9.99185 -13.7701
upperneck 30.0218 -13.9149 12.2924
head 15.0665 -5.81297 4.89289
rclavicle -2.16178e-015 -3.37934e-015
rhumerus -37.7686 -17.1513 -74.1596
rradius 35.786
rwrist 6.10245
rhand -16.9377 5.56896
rfingers 7.12502
rthumb 9.29544 -24.2061
lclavicle -2.16178e-015 -3.37934e-015
lhumerus -36.0196 5.31197 80.4995
lradius 35.8847
lwrist -3.54864
lhand -16.6418 25.3114
lfingers 7.12502
lthumb 9.58099 55.0736
rfemur -17.2343 -9.93439 19.0343
rtibia 47.5471
rfoot -19.2821 24.5404
rtoes -23.758
lfemur -7.2642 -4.7712 -20.64
ltibia 31.5237
lfoot -17.6423 -10.1435
ltoes 14.6594
149
root -12.6044 17.5647 -4.20174 -66.7561 89.2571 -64.2826
lowerback 14.3896 0.296749 -4.04665
upperback 1.02576 -0.129381 0.947286
thorax -6.97794 0.101878 3.32507
lowerneck -15.9623 -9.92937 -13.7998
upperneck 29.8106 -13.8016 12.3269
head 14.9749 -5.76829 4.92294
rclavicle -4.09993e-016 3.08116e-015
rhumerus -37.6278 -17.5094 -74.1334
rradius 35.547
rwrist 6.7412
rhand -16.927 5.87277
rfingers 7.12502
rthumb 9.30576 -23.9018
lclavicle -4.09993e-016 3.08116e-015
lhumerus -35.8734 5.46128 80.4128
lradius 35.8047
lwrist -3.58749
lhand -16.8145 25.2112
lfingers 7.12502
lthumb 9.41429 54.981
rfemur -17.675 -10.3365 18.4345
rtibia 48.1458
rfoot -19.2387 24.8788
rtoes -22.0424
lfemur -7.23572 -4.89567 -20.7232
ltibia 31.2637
lfoot -17.2487 -10.3206
ltoes 14.1415
150
root -12.6354 17.5748 -4.16835 -13.5687 89.4104 -11.6557
lowerback 14.1094 0.392497 -4.47508
upperback 0.846281 -0.0828468 0.754324
thorax -7.0184 0.136053 3.35207
lowerneck -16.0431 -9.91519 -13.8449
upperneck 29.717 -13.7561 12.3349
head 14.9468 -5.75399 4.93591
rclavicle -2.01269e-015 -6.55989e-015
rhumerus -37.6362 -17.8576 -74.1285
rradius 35.4542
rwrist 7.01083
rhand -16.8616 6.03787
rfingers 7.12502
rthumb 9.36884 -23.7339
lclavicle -2.01269e-015 -6.55989e-015
lhumerus -35.754 5.41828 80.3511
lradius 35.7191
lwrist -3.63209
lhand -16.7089 24.9741
lfingers 7.12502
lthumb 9.51622 54.7393
rfemur -18.7394 -10.2956 17.6026
rtibia 48.5843
rfoot -19.5059 24.3055
rtoes -20.8012
lfemur -7.81411 -4.67408 -21.0854
ltibia 31.0267
lfoot -17.1704 -9.80056
ltoes 6.90114
151
root -12.6434 17.5779 -4.11173 -23.3276 89.2709 -21.0778
lowerback 14.4003 0.44756 -4.46753
upperback 0.998095 -0.0101174 0.802611
thorax -7.02433 0.171898 3.38603
lowerneck -16.1794 -9.901 -13.7882
upperneck 29.6797 -13.716 12.273
head 14.941 -5.73531 4.90153
rclavicle 2.5842e-015 -7.25564e-015
rhumerus -37.6311 -17.7208 -74.2706
rradius 35.5116
rwrist 6.91162
rhand -16.9459 5.84333
rfingers 7.12502
rthumb 9.28758 -23.9321
lclavicle 2.5842e-015 -7.25564e-015
lhumerus -35.6217 5.16448 80.3281
lradius 35.7383
lwrist -3.56026
lhand -16.6506 25.2942
lfingers 7.12502
lthumb 9.57243 55.0568
rfemur -18.6026 -10.1769 17.3865
rtibia 48.8651
rfoot -20.2022 22.6451
rtoes -21.0558
lfemur -7.34897 -4.16189 -20.7887
ltibia 30.73
lfoot -18.0372 -9.0107
ltoes 0.339851
152
root -12.6532 17.594 -4.06206 -7.41635 89.2283 -4.96456
lowerback 14.6268 0.499059 -4.63895
upperback 1.05949 0.0143588 0.676018
thorax -7.08698 0.18901 3.34418
lowerneck -16.2174 -9.90616 -13.6684
upperneck 29.6564 -13.7365 12.2145
head 14.9247 -5.73732 4.84914
rclavicle 3.64024e-015 -3.67752e-015
rhumerus -37.7175 -17.6972 -74.4145
rradius 35.5577
rwrist 7.15415
rhand -16.9094 5.81022
rfingers 7.12502
rthumb 9.32281 -23.9636
lclavicle 3.64024e-015 -3.67752e-015
lhumerus -35.6159 4.67427 80.2453
lradius 35.8728
lwrist -3.20103
lhand -17.1055 25.7976
lfingers 7.12502
lthumb 9.1335 55.5799
rfemur -18.4733 -10.1936 16.7268
rtibia 48.9884
rfoot -20.907 20.391
rtoes -21.8881
lfemur -6.91902 -4.83747 -20.8082
ltibia 30.4187
lfoot -17.1333 -9.63811
ltoes 6.61642
153
root -12.6658 17.5967 -4.01851 -7.87285 89.1515 -5.36131
lowerback 14.7062 0.460794 -4.54295
upperback 1.09371 -0.0246616 0.644415
thorax -7.09074 0.16662 3.26408
lowerneck -16.3039 -9.88672 -13.6322
upperneck 29.6659 -13.6849 12.1317
head 14.927 -5.71962 4.8156
rclavicle 1.76421e-015 1.09332e-015
rhumerus -37.7226 -17.3653 -74.612
rradius 35.6116
rwrist 7.06924
rhand -16.7352 5.90987
rfingers 7.12502
rthumb 9.49089 -23.8564
lclavicle 1.76421e-015 1.09332e-015
lhumerus -35.6028 4.3899 80.1594
lradius 35.9435
lwrist -2.96942
lhand -17.2447 25.8452
lfingers 7.12502
lthumb 8.99919 55.6332
rfemur -18.4069 -10.1499 16.2668
rtibia 48.9558
rfoot -21.5548 17.6983
rtoes -22.5134
lfemur -6.71039 -5.1377 -20.663
ltibia 30.1026
lfoot -16.3579 -10.0331
ltoes 10.2748
